<svg viewBox="0 0 480 480" id="view" xmlns="http://www.w3.org/2000/svg">
<rect width="100%" height="100%" fill="white"/>

                <text id="title" style="font: bold 24px monospace;" x="10" y="30">Teletubbie_Po</text>
                <g id="all" transform="translate(10,40)"><ellipse cx="210" cy="210" rx="200" ry="210" stroke="black" fill="none"></ellipse><ellipse cx="210" cy="20" rx="8" ry="7" stroke="black" fill="none"></ellipse><path d="M 205 35 A 15 15 0 1 1 215 35" stroke="black" fill="none"></path><line x1="205" y1="35" x2="205" y2="40" stroke="black" fill="none"></line><line x1="215" y1="35" x2="215" y2="40" stroke="black" fill="none"></line><path d="M 160 70 A 50 30 0 0 1 260 70" fill="none" stroke="black"></path><path d="M 160 70 A 7 35 0 0 0 160 120" fill="none" stroke="black"></path><path d="M 260 70 A 7 35 0 0 1 260 120" fill="none" stroke="black"></path><path d="M 160 120 A 45 25 0 0 0 260 120" fill="none" stroke="black"></path><path d="M 170 80 A 40 25 0 0 1 250 80" fill="none" stroke="black"></path><line x1="170" y1="80" x2="170" y2="110" stroke="black" fill="none"></line><line x1="250" y1="80" x2="250" y2="110" stroke="black" fill="none"></line><path d="M 170 110 A 40 30 0 0 0 250 110" fill="none" stroke="black"></path><path d="M 195 125 A 15 5 0 0 0 225 125" fill="black" stroke="black"></path><ellipse cx="190" cy="100" rx="6" ry="5" stroke="black" fill="black"></ellipse><ellipse cx="230" cy="100" rx="6" ry="5" stroke="black" fill="black"></ellipse><path d="M 182 93 Q 190 87 198 93" stroke="black" fill="none"></path><path d="M 222 93 Q 230 87 238 93" stroke="black" fill="none"></path><path d="M 150 65 A 10 30 0 0 0 150 125" fill="none" stroke="black"></path><line x1="150" y1="65" x2="158" y2="80" stroke="black" fill="none"></line><line x1="150" y1="125" x2="160" y2="125" stroke="black" fill="none"></line><path d="M 145 70 A 10 30 0 0 1 145 120" fill="none" stroke="black"></path><path d="M 270 65 A 10 30 0 0 1 270 125" fill="none" stroke="black"></path><line x1="270" y1="65" x2="262" y2="80" stroke="black" fill="none"></line><line x1="260" y1="125" x2="270" y2="125" stroke="black" fill="none"></line><path d="M 275 70 A 10 30 0 0 0 275 120" fill="none" stroke="black"></path><path d="M 270 200 A 30 80 0 0 1 270 340" fill="none" stroke="black"></path><path d="M 150 200 A 30 80 0 0 0 150 340" fill="none" stroke="black"></path><line x1="160" y1="220" x2="260" y2="220" stroke="black" fill="none"></line><line x1="160" y1="270" x2="260" y2="270" stroke="black" fill="none"></line><line x1="160" y1="220" x2="160" y2="270" stroke="black" fill="none"></line><line x1="260" y1="220" x2="260" y2="270" stroke="black" fill="none"></line><path d="M 190 390 Q 210 290 230 390" stroke="black" fill="none"></path><path d="M 150 390 A 20 10 0 0 0 190 390" fill="none" stroke="black"></path><path d="M 150 340 A 5 25 0 0 1 150 370" fill="none" stroke="black"></path><path d="M 150 370 A 2 10 0 0 0 150 390" fill="none" stroke="black"></path><path d="M 230 390 A 20 10 0 0 0 270 390" fill="none" stroke="black"></path><path d="M 270 340 A 5 25 0 0 0 270 370" fill="none" stroke="black"></path><path d="M 270 370 A 2 10 0 0 1 270 390" fill="none" stroke="black"></path><line x1="250" y1="140" x2="380" y2="200" stroke="black" fill="none"></line><line x1="260" y1="195" x2="370" y2="230" stroke="black" fill="none"></line><path d="M 380 200 A 20 15 0 0 1 380 230" fill="none" stroke="black"></path><line x1="370" y1="230" x2="380" y2="230" stroke="black" fill="none"></line><line x1="170" y1="140" x2="40" y2="200" stroke="black" fill="none"></line><line x1="160" y1="195" x2="50" y2="230" stroke="black" fill="none"></line><path d="M 40 200 A 20 15 0 0 0 40 230" fill="none" stroke="black"></path><line x1="40" y1="230" x2="50" y2="230" stroke="black" fill="none"></line></g>
            </svg>
